<svg id="color" xmlns="http://www.w3.org/2000/svg" viewBox="0 0 423.43 587.14"><defs><style>.cls-1{fill:#f79c81;}.cls-2{fill:#d0846e;}</style></defs><path class="cls-1" d="M353.5,149.36c2.94,1.12,4.91,4.62,3.63,12.9L297,283.55s-33.8,85.92-72.35,116.24v140L117,535.61l8.8-154.14s-28.41-29.06-31.11-42.32-4-83.33-4.72-102.31-25.7-52.48-25.7-52.48-1.61-22,12.83-24.64h0l.12,0C98.16,162.89,113,192,113,192L127.91,221l2.48-6.79,3.48,6.79L198.1,45.39s4.13-4,8.86-5.48c2.56,1,4.83,3.73,6.16,9.26,4.73,19.6-31.78,138.37-31.78,138.37s5.5,9.25,10.55,5c2.26,1.54,5.06,1.94,7.56-1.86,5.43-8.22,69-151.31,69-151.31a24.85,24.85,0,0,1,8.4-4.48c3.46,1.15,6.56,4.74,7.95,13L236.1,204.59s3.37,10,10.11,6c2,1.36,4.65,1.58,8-1.57L317.79,92.76A34.79,34.79,0,0,1,327.9,88c3.63,1.3,6,5.79,4.21,16.79L281.4,224.17s3.38,7.59,8.8,5.67l.68-1a5.34,5.34,0,0,0,5.28,1l50.71-77.69A26.92,26.92,0,0,1,353.5,149.36Z"/><path class="cls-1" d="M353.5,149.36c-.22-.07-.42-.15-.64-.2A2.8,2.8,0,0,1,353.5,149.36Z"/><path class="cls-2" d="M352.86,149.16c.22.05.42.13.64.2a26.92,26.92,0,0,0-6.63,2.79l-50.71,77.69a5.34,5.34,0,0,1-5.28-1l50-76.66s5.3-3.25,9.93-3.25a8.58,8.58,0,0,1,1.35.11A6,6,0,0,1,352.86,149.16Z"/><path class="cls-1" d="M352.86,149.16a6,6,0,0,0-.67-.15A2.6,2.6,0,0,1,352.86,149.16Z"/><path class="cls-1" d="M352.19,149a8.58,8.58,0,0,0-1.35-.11A8.58,8.58,0,0,1,352.19,149Z"/><path class="cls-1" d="M327.9,88a8.12,8.12,0,0,0-1.31-.34A5.38,5.38,0,0,1,327.9,88Z"/><path class="cls-2" d="M326.59,87.64a8.12,8.12,0,0,1,1.31.34,34.79,34.79,0,0,0-10.11,4.78L254.23,209c-3.37,3.15-6.06,2.93-8,1.57a5,5,0,0,0,.49-.31c.16-.11.34-.23.52-.37a13.45,13.45,0,0,0,1.05-.89L311.83,92.76S320.43,86.68,326.59,87.64Z"/><path class="cls-1" d="M276.83,34.9l-.59-.16Z"/><path class="cls-2" d="M276.24,34.74l.59.16a24.85,24.85,0,0,0-8.4,4.48s-63.55,143.09-69,151.31c-2.5,3.8-5.3,3.4-7.56,1.86a4.67,4.67,0,0,0,.51-.49,3.5,3.5,0,0,0,.48-.54,7.4,7.4,0,0,0,.61-.83c5.43-8.22,69-151.31,69-151.31s6.06-5.14,12-4.88h.42A9.56,9.56,0,0,1,276.24,34.74Z"/><path class="cls-1" d="M274.87,34.51h0Z"/><path class="cls-1" d="M246.7,210.27c.18-.11.34-.24.52-.37C247,210,246.86,210.16,246.7,210.27Z"/><path class="cls-2" d="M224.6,539.8V540L111,535.61l8.8-154.14s-28.4-29.06-31.11-42.32-4-83.33-4.72-102.31-25.7-52.48-25.7-52.48-1.08-14.6,6.35-21.45a7.23,7.23,0,0,1,.78-.67,13.39,13.39,0,0,1,8.6-2.76,22.78,22.78,0,0,1,3.06.24c-14.44,2.6-12.83,24.64-12.83,24.64s25,33.5,25.7,52.48,2,89,4.72,102.31,31.11,42.32,31.11,42.32L117,535.61Z"/><path class="cls-1" d="M207,39.91c-.22-.09-.46-.16-.69-.24A3.53,3.53,0,0,1,207,39.91Z"/><path class="cls-2" d="M206.27,39.67c.23.08.47.15.69.24-4.73,1.45-8.86,5.48-8.86,5.48L133.87,221l-3.48-6.79L192.14,45.39s6.18-6,12-6a6.42,6.42,0,0,1,1.39.13A4,4,0,0,1,206.27,39.67Z"/><path class="cls-1" d="M206.27,39.67a4,4,0,0,0-.7-.16A4,4,0,0,1,206.27,39.67Z"/><path class="cls-1" d="M205.57,39.51a6.42,6.42,0,0,0-1.39-.13A6.54,6.54,0,0,1,205.57,39.51Z"/><path class="cls-1" d="M192.4,192.06a5.24,5.24,0,0,0,.48-.54A3.5,3.5,0,0,1,192.4,192.06Z"/><path class="cls-1" d="M77.07,159.72a22.78,22.78,0,0,0-3.06-.24A19.72,19.72,0,0,1,77.07,159.72Z"/><path class="cls-1" d="M65.41,162.24a7.23,7.23,0,0,0-.78.67C64.87,162.69,65.13,162.45,65.41,162.24Z"/></svg>